<svg width="36" height="36" viewBox="0 0 36 36" fill="none" xmlns="http://www.w3.org/2000/svg">
<path d="M5.865 25.7703C5.58 25.7703 5.295 25.6653 5.07 25.4403C3.015 23.3703 1.875 20.6403 1.875 17.7453C1.875 11.7303 6.75 6.84032 12.75 6.84032L21.855 6.87032L20.22 5.31032C19.77 4.87532 19.755 4.17032 20.19 3.72032C20.625 3.27032 21.33 3.25532 21.78 3.69032L25.44 7.20032C25.77 7.51532 25.875 8.01032 25.71 8.43032C25.545 8.85032 25.125 9.13532 24.66 9.13532L12.75 9.10532C7.995 9.10532 4.125 12.9903 4.125 17.7603C4.125 20.0553 5.025 22.2303 6.66 23.8653C7.095 24.3003 7.095 25.0203 6.66 25.4553C6.435 25.6653 6.15 25.7703 5.865 25.7703Z" fill="#111111"/>
<path d="M14.9999 32.6253C14.7149 32.6253 14.4448 32.5203 14.2199 32.3103L10.5599 28.8003C10.2299 28.4853 10.1249 27.9903 10.2899 27.5703C10.4549 27.1503 10.8749 26.8653 11.3399 26.8653L23.2649 26.8953C28.0198 26.8953 31.8899 23.0103 31.8899 18.2403C31.8899 15.9453 30.9898 13.7703 29.3548 12.1353C28.9198 11.7003 28.9198 10.9803 29.3548 10.5453C29.7898 10.1103 30.5098 10.1103 30.9448 10.5453C32.9998 12.6153 34.1399 15.3453 34.1399 18.2403C34.1399 24.2553 29.2649 29.1453 23.2649 29.1453L14.1598 29.1153L15.7948 30.6753C16.2449 31.1103 16.2599 31.8153 15.8249 32.2653C15.5849 32.5053 15.2999 32.6253 14.9999 32.6253Z" fill="#111111"/>
<path d="M13.5 23.2503H22.5C25.38 23.2503 27.75 20.8953 27.75 18.0003C27.75 15.1203 25.395 12.7503 22.5 12.7503H13.5C10.62 12.7503 8.25 15.1053 8.25 18.0003C8.25 20.8953 10.605 23.2503 13.5 23.2503Z" fill="black" fill-opacity="0.8"/>
</svg>
